<?xml version="1.0" standalone="no"?>
<!DOCTYPE svg PUBLIC "-//W3C//DTD SVG 20010904//EN"
 "http://www.w3.org/TR/2001/REC-SVG-20010904/DTD/svg10.dtd">
<svg version="1.0" xmlns="http://www.w3.org/2000/svg"
 width="860.000000pt" height="860.000000pt" viewBox="0 0 860.000000 860.000000"
 preserveAspectRatio="xMidYMid meet">

<g transform="translate(0.000000,860.000000) scale(0.100000,-0.100000)"
fill="#000000" stroke="none">
<path d="M5200 6700 l0 -100 -50 0 -50 0 0 -100 0 -100 -50 0 -50 0 0 -100 0
-100 -50 0 -50 0 0 -100 0 -100 -50 0 -50 0 0 -100 0 -100 -50 0 -50 0 0 -100
0 -100 -50 0 -50 0 0 -100 0 -100 -50 0 -50 0 0 -100 0 -100 -50 0 -50 0 0
-100 0 -100 -50 0 -50 0 0 -100 0 -100 50 0 50 0 0 -100 0 -100 -100 0 -100 0
0 -50 0 -50 -50 0 -50 0 0 -150 0 -150 -50 0 -50 0 0 50 0 50 -50 0 -50 0 0
100 0 100 -50 0 -50 0 0 -100 0 -100 50 0 50 0 0 -50 0 -50 -50 0 -50 0 0 -50
0 -50 -50 0 -50 0 0 -100 0 -100 50 0 50 0 0 -50 0 -50 50 0 50 0 0 -50 0 -50
50 0 50 0 0 -100 0 -100 -50 0 -50 0 0 -50 0 -50 -50 0 -50 0 0 -50 0 -50 -50
0 -50 0 0 -50 0 -50 -50 0 -50 0 0 -100 0 -100 -50 0 -50 0 0 -100 0 -100 -50
0 -50 0 0 -100 0 -100 -50 0 -50 0 0 -100 0 -100 50 0 50 0 0 100 0 100 50 0
50 0 0 100 0 100 50 0 50 0 0 100 0 100 50 0 50 0 0 50 0 50 50 0 50 0 0 50 0
50 50 0 50 0 0 50 0 50 50 0 50 0 0 100 0 100 50 0 50 0 0 50 0 50 50 0 50 0
0 50 0 50 100 0 100 0 0 -50 0 -50 50 0 50 0 0 -50 0 -50 50 0 50 0 0 -100 0
-100 50 0 50 0 0 -50 0 -50 50 0 50 0 0 -50 0 -50 50 0 50 0 0 -50 0 -50 50 0
50 0 0 -100 0 -100 50 0 50 0 0 -100 0 -100 50 0 50 0 0 -100 0 -100 50 0 50
0 0 100 0 100 -50 0 -50 0 0 100 0 100 -50 0 -50 0 0 100 0 100 -50 0 -50 0 0
100 0 100 -50 0 -50 0 0 50 0 50 -50 0 -50 0 0 50 0 50 -50 0 -50 0 0 50 0 50
-50 0 -50 0 0 100 0 100 -50 0 -50 0 0 50 0 50 -50 0 -50 0 0 50 0 50 -50 0
-50 0 0 50 0 50 -50 0 -50 0 0 50 0 50 100 0 100 0 0 50 0 50 50 0 50 0 0 100
0 100 50 0 50 0 0 -50 0 -50 100 0 100 0 0 150 0 150 50 0 50 0 0 150 0 150
50 0 50 0 0 200 0 200 50 0 50 0 0 150 0 150 51 0 50 0 -1 103 c-1 56 -1 123
-1 150 l1 47 50 0 50 0 0 150 0 150 50 0 50 0 0 300 0 300 -100 0 -100 0 0
-100z m-700 -2150 l0 -50 -50 0 -50 0 0 50 0 50 50 0 50 0 0 -50z m-300 -400
l0 -50 -50 0 -50 0 0 50 0 50 50 0 50 0 0 -50z"/>
<path d="M3200 6300 l0 -100 50 0 50 0 0 100 0 100 -50 0 -50 0 0 -100z"/>
<path d="M3300 6000 l0 -100 50 0 50 0 0 100 0 100 -50 0 -50 0 0 -100z"/>
<path d="M3400 5700 l0 -100 50 0 50 0 0 100 0 100 -50 0 -50 0 0 -100z"/>
<path d="M3500 5400 l0 -100 50 0 50 0 0 100 0 100 -50 0 -50 0 0 -100z"/>
<path d="M3600 5000 l0 -100 50 0 50 0 0 100 0 100 -50 0 -50 0 0 -100z"/>
<path d="M3700 4700 l0 -100 50 0 50 0 0 100 0 100 -50 0 -50 0 0 -100z"/>
<path d="M2800 2950 l0 -50 -100 0 -100 0 0 -50 0 -50 -50 0 -50 0 0 -50 0
-50 -50 0 -50 0 0 -100 0 -100 50 0 50 0 0 50 0 50 50 0 50 0 0 50 0 50 100 0
100 0 0 50 0 50 100 0 100 0 0 -50 0 -50 100 0 100 0 0 100 0 100 -100 0 -100
0 0 50 0 50 -100 0 -100 0 0 -50z"/>
<path d="M5600 2950 l0 -50 -100 0 -100 0 0 -100 0 -100 100 0 100 0 0 50 0
50 100 0 100 0 0 -50 0 -50 100 0 100 0 0 -50 0 -50 50 0 50 0 0 -50 0 -50 50
0 50 0 0 100 0 100 -50 0 -50 0 0 50 0 50 -50 0 -50 0 0 50 0 50 -100 0 -100
0 0 50 0 50 -100 0 -100 0 0 -50z"/>
<path d="M2200 2300 l0 -100 50 0 50 0 0 -50 0 -50 50 0 50 0 0 -50 0 -50 100
0 100 0 0 -50 0 -50 100 0 100 0 0 -50 0 -50 200 0 200 0 0 50 0 50 50 0 50 0
0 100 0 100 -50 0 -50 0 0 -50 0 -50 -200 0 -200 0 0 50 0 50 -100 0 -100 0 0
50 0 50 -100 0 -100 0 0 50 0 50 -50 0 -50 0 0 50 0 50 -50 0 -50 0 0 -100z"/>
<path d="M6300 2350 l0 -50 -50 0 -50 0 0 -50 0 -50 -100 0 -100 0 0 -50 0
-50 -100 0 -100 0 0 -50 0 -50 -200 0 -200 0 0 50 0 50 -50 0 -50 0 0 -50 0
-50 50 0 50 0 0 -100 0 -100 200 0 200 0 0 50 0 50 100 0 100 0 0 50 0 50 100
0 100 0 0 50 0 50 50 0 50 0 0 50 0 50 50 0 50 0 0 100 0 100 -50 0 -50 0 0
-50z"/>
</g>
</svg>
